<?xml version="1.0" ?><!DOCTYPE svg  PUBLIC '-//W3C//DTD SVG 1.1//EN'  'http://www.w3.org/Graphics/SVG/1.1/DTD/svg11.dtd'><svg height="8.4666mm" style="shape-rendering:geometricPrecision; text-rendering:geometricPrecision; image-rendering:optimizeQuality; fill-rule:evenodd; clip-rule:evenodd" version="1.1" viewBox="0 0 846.66 846.66" width="8.4666mm" xml:space="preserve" xmlns="http://www.w3.org/2000/svg" xmlns:xlink="http://www.w3.org/1999/xlink"><defs><style type="text/css">
   <![CDATA[
    .fil0 {fill:black;fill-rule:nonzero}
   ]]>
  </style></defs><g id="Layer_x0020_1"><path class="fil0" d="M117.25 10.39l612.16 0c11.4,0 20.64,9.24 20.64,20.64l0 784.6c0,11.4 -9.24,20.64 -20.64,20.64l-612.16 0c-11.4,0 -20.64,-9.24 -20.64,-20.64l0 -784.6c0,-11.4 9.24,-20.64 20.64,-20.64zm379.9 637.26c-27.15,0 -27.15,-41.29 0,-41.29l117.48 0c27.15,0 27.15,41.29 0,41.29l-117.48 0zm0 88.37c-27.15,0 -27.15,-41.29 0,-41.29l117.48 0c27.15,0 27.15,41.29 0,41.29l-117.48 0zm-265.12 -151.22l144.42 0c11.4,0 20.65,9.25 20.65,20.65l0 131.49c0,11.4 -9.25,20.64 -20.65,20.64l-144.42 0c-11.4,0 -20.64,-9.24 -20.64,-20.64l0 -131.49c0,-11.4 9.24,-20.65 20.64,-20.65zm123.77 41.29l-103.12 0 0 90.2 103.12 0 0 -90.2zm-156.66 -92.68c-27.16,0 -27.16,-41.29 0,-41.29l446.19 0c27.15,0 27.15,41.29 0,41.29l-446.19 0zm0 -86.22c-27.16,0 -27.16,-41.29 0,-41.29l446.19 0c27.15,0 27.15,41.29 0,41.29l-446.19 0zm315.14 -278.58c-27.16,0 -27.16,-41.29 0,-41.29l109.93 0c27.15,0 27.15,41.29 0,41.29l-109.93 0zm0 177.82c-27.16,0 -27.16,-41.29 0,-41.29l109.93 0c27.15,0 27.15,41.29 0,41.29l-109.93 0zm0 -88.91c-27.16,0 -27.16,-41.29 0,-41.29l109.93 0c27.15,0 27.15,41.29 0,41.29l-109.93 0zm-183.2 -145.83c54.7,0 99.05,44.35 99.05,99.05 0,13.86 -2.85,27.06 -7.99,39.04 24.37,24.23 38.21,57.22 38.21,91.64 0,27.15 -41.29,27.15 -41.29,0 0,-21.3 -7.37,-41.39 -21.25,-57.48 -17.61,16.06 -41.03,25.85 -66.73,25.85 -25.7,0 -49.12,-9.79 -66.72,-25.85 -13.89,16.09 -21.26,36.19 -21.26,57.48 0,27.15 -41.29,27.15 -41.29,0 0,-34.42 13.84,-67.41 38.21,-91.64 -5.14,-11.98 -7.99,-25.18 -7.99,-39.04 0,-54.7 44.35,-99.05 99.05,-99.05zm0 41.29c-31.9,0 -57.76,25.86 -57.76,57.76 0,31.9 25.86,57.76 57.76,57.76 31.9,0 57.76,-25.86 57.76,-57.76 0,-31.9 -25.86,-57.76 -57.76,-57.76zm377.68 -101.3l-570.86 0 0 743.3 570.86 0 0 -743.3z"/></g></svg>